#!OML:ASF H:\Terrain\Patient Classification 1\Animal1\Tuesday\Animal1.ASF
:FULLY-SPECIFIED
:DEGREES
2604
root 2.18217 16.7613 -2.78794 10.2811 -40.9227 -0.856891
lowerback -9.23633 -0.555234 -2.43113
upperback -10.7891 -0.850351 0.786704
thorax -6.11305 -0.328914 2.16361
lowerneck -9.10054 0.320956 -2.59826
upperneck 30.3695 -4.78886 16.9001
head 11.9416 -0.710513 6.27177
rclavicle 1.10437e-013 4.34593e-014
rhumerus -71.0736 -40.6982 6.62319
rradius 24.2871
rwrist -42.4972
rhand -39.9202 -345.352
rfingers 7.12502
rthumb -12.8909 -14.9336
lclavicle 1.10437e-013 4.34593e-014
lhumerus -71.0204 46.9271 2.61283
lradius 31.2874
lwrist 1.37281
lhand 9.05586 49.6563
lfingers 7.12502
lthumb 34.2303 1156.39
rfemur -10.5789 23.8838 26.881
rtibia 12.2561
rfoot 1.89729 -23.2839
rtoes -6.77496
lfemur 3.56048 -10.7298 -12.1205
ltibia 25.6414
lfoot 19.1677 2.95422
ltoes 1.68284
2605
root 2.15991 16.7575 -2.77518 9.93546 -41.0059 -0.567791
lowerback -9.15906 -0.542753 -2.62222
upperback -10.8131 -0.8286 0.770208
thorax -6.1837 -0.304138 2.25549
lowerneck -8.95926 0.149276 -2.84639
upperneck 30.3546 -4.94322 16.765
head 11.9225 -0.832037 6.24078
rclavicle 2.64943e-014 -1.5617e-014
rhumerus -70.4397 -40.2264 4.5086
rradius 24.3689
rwrist -44.2752
rhand -40.1876 -344.774
rfingers 7.12502
rthumb -13.1486 -14.3399
lclavicle 2.64943e-014 -1.5617e-014
lhumerus -71.3313 47.263 3.57047
lradius 30.6967
lwrist 1.37289
lhand 9.38816 50.1317
lfingers 7.12502
lthumb 34.5458 1156.79
rfemur -10.2807 23.7588 26.7817
rtibia 12.2302
rfoot 2.06444 -23.1421
rtoes -7.56347
lfemur 3.76292 -10.7026 -12.4345
ltibia 25.6282
lfoot 19.7263 2.33894
ltoes -0.451964
2606
root 2.14231 16.7537 -2.7604 9.70462 -41.0453 -0.516454
lowerback -9.16325 -0.563217 -2.43921
upperback -10.7162 -0.863184 0.682448
thorax -6.0739 -0.339487 2.05808
lowerneck -8.73116 0.0459438 -2.91053
upperneck 29.9929 -5.00817 16.7351
head 11.7358 -0.893464 6.20125
rclavicle -2.16862e-014 5.56597e-015
rhumerus -71.6127 -41.0399 4.79604
rradius 24.3647
rwrist -42.7275
rhand -39.898 -345.027
rfingers 7.12502
rthumb -12.8694 -14.6105
lclavicle -2.16862e-014 5.56597e-015
lhumerus -70.1849 46.6204 6.74631
lradius 30.7808
lwrist 3.41394
lhand 10.566 50.9897
lfingers 7.12502
lthumb 35.663 1157.39
rfemur -9.88267 23.604 26.8899
rtibia 12.1083
rfoot 2.45057 -22.8507
rtoes -9.02472
lfemur 4.02715 -10.9889 -12.5644
ltibia 25.6804
lfoot 19.9319 3.50612
ltoes 4.67375
2607
root 2.12344 16.7518 -2.75045 9.80422 -41.0078 -0.708571
lowerback -9.34647 -0.598102 -2.05873
upperback -10.6352 -0.923891 0.602471
thorax -5.88242 -0.402487 1.75517
lowerneck -8.64765 -0.0461391 -2.8425
upperneck 29.677 -5.0833 16.6667
head 11.5994 -0.941035 6.12709
rclavicle 7.54636e-014 3.00165e-014
rhumerus -73.2242 -42.0595 5.64693
rradius 24.1538
rwrist -40.3738
rhand -39.6427 -346.281
rfingers 7.12502
rthumb -12.6233 -15.8798
lclavicle 7.54636e-014 3.00165e-014
lhumerus -70.1168 46.8775 7.81578
lradius 30.4407
lwrist 3.46688
lhand 12.1246 51.1087
lfingers 7.12502
lthumb 37.1386 1157.14
rfemur -9.67769 23.4994 27.1422
rtibia 11.9306
rfoot 2.73071 -22.6637
rtoes -9.67477
lfemur 4.01379 -11.1778 -12.345
ltibia 25.8419
lfoot 20.3626 4.13011
ltoes 9.46493
2608
root 2.10373 16.7506 -2.75177 10.0913 -41.0041 -1.01597
lowerback -9.50856 -0.583245 -1.73875
upperback -10.626 -0.918151 0.585791
thorax -5.78483 -0.423848 1.55652
lowerneck -8.79221 -0.136426 -2.73177
upperneck 29.6374 -5.19265 16.5234
head 11.6235 -0.988845 6.03499
rclavicle 9.05713e-015 -8.94531e-015
rhumerus -73.1672 -42.0305 4.01981
rradius 24.0904
rwrist -40.7818
rhand -39.9138 -345.941
rfingers 7.12502
rthumb -12.8846 -15.523
lclavicle 9.05713e-015 -8.94531e-015
lhumerus -71.7827 48.4623 5.92833
lradius 29.4211
lwrist 0.942616
lhand -6.9519 62.8456
lfingers 7.12502
lthumb 18.9171 988.054
rfemur -9.75293 23.3478 27.451
rtibia 11.9002
rfoot 2.76801 -22.4735
rtoes -9.91294
lfemur 3.76748 -10.9679 -11.9341
ltibia 26.0227
lfoot 21.2086 2.81501
ltoes 6.15915
2609
root 2.08427 16.7498 -2.75429 10.1288 -40.9906 -0.991643
lowerback -9.54725 -0.577847 -1.72983
upperback -10.6599 -0.913426 0.561181
thorax -5.8011 -0.423359 1.52591
lowerneck -9.00731 -0.243999 -2.81186
upperneck 29.7189 -5.30261 16.3704
head 11.7118 -1.05222 5.98388
rclavicle -2.85504e-014 -9.54166e-015
rhumerus -72.0964 -41.3121 0.892987
rradius 24.4198
rwrist -42.8813
rhand -40.5515 -344.612
rfingers 7.12502
rthumb -13.4993 -14.154
lclavicle -2.85504e-014 -9.54166e-015
lhumerus -72.7589 49.4091 5.50151
lradius 28.8353
lwrist -0.460465
lhand -5.43202 62.9214
lfingers 7.12502
lthumb 20.3783 988.128
rfemur -9.80893 23.2142 27.5033
rtibia 11.9514
rfoot 2.7327 -22.3601
rtoes -10.1373
lfemur 3.603 -10.8513 -11.8537
ltibia 26.1735
lfoot 21.4943 2.8978
ltoes 6.77454
2610
root 2.06245 16.7514 -2.75122 9.81039 -40.9576 -0.344006
lowerback -9.65517 -0.622041 -2.20372
upperback -10.7183 -0.954985 0.414751
thorax -5.80312 -0.418899 1.63505
lowerneck -9.22557 -0.382077 -2.90761
upperneck 29.8027 -5.44349 16.1848
head 11.8048 -1.13487 5.91849
rclavicle -2.36305e-014 9.24349e-015
rhumerus -72.244 -41.3136 -0.223238
rradius 24.5165
rwrist -43.1756
rhand -40.8758 -344.283
rfingers 7.12502
rthumb -13.8119 -13.8045
lclavicle -2.36305e-014 9.24349e-015
lhumerus -72.2536 49.6184 7.11913
lradius 28.4359
lwrist -0.477971
lhand -2.72667 72.0931
lfingers 7.12502
lthumb 22.9763 979.256
rfemur -9.77992 23.3052 27.0047
rtibia 11.8416
rfoot 2.77707 -22.4922
rtoes -10.0261
lfemur 3.38376 -10.9741 -12.3344
ltibia 26.3746
lfoot 21.3552 3.78715
ltoes 9.2101
2611
root 2.04119 16.7509 -2.74832 9.6656 -40.9256 -0.0348125
lowerback -9.71799 -0.667796 -2.43265
upperback -10.738 -1.00777 0.31638
thorax -5.78787 -0.434556 1.65696
lowerneck -9.32669 -0.48214 -2.82762
upperneck 29.6886 -5.52709 15.9871
head 11.7834 -1.18352 5.80694
rclavicle -2.75814e-014 3.18055e-015
rhumerus -73.0391 -41.842 -0.285644
rradius 24.339
rwrist -42.2832
rhand -40.7255 -343.865
rfingers 7.12502
rthumb -13.6671 -13.3966
lclavicle -2.75814e-014 3.18055e-015
lhumerus -71.9876 50.1882 8.09836
lradius 27.8854
lwrist -0.929853
lhand -7.46167 65.6107
lfingers 7.12502
lthumb 18.4268 985.242
rfemur -9.60851 23.2197 26.8218
rtibia 11.5558
rfoot 2.93778 -22.4217
rtoes -10.452
lfemur 3.13202 -10.9967 -12.4947
ltibia 26.6697
lfoot 21.6925 3.40454
ltoes 8.21356
2612
root 2.02161 16.7554 -2.7546 9.98008 -40.8691 -0.505524
lowerback -9.61183 -0.704821 -2.13259
upperback -10.7737 -1.07104 0.450208
thorax -5.88265 -0.47988 1.62863
lowerneck -9.30839 -0.491653 -2.78224
upperneck 29.4585 -5.45804 15.8307
head 11.6717 -1.17004 5.72845
rclavicle 6.21202e-015 -4.12478e-015
rhumerus -73.1885 -42.1237 -0.990872
rradius 24.1218
rwrist -41.8594
rhand -40.1805 -343.963
rfingers 7.12502
rthumb -13.1417 -13.5289
lclavicle 6.21202e-015 -4.12478e-015
lhumerus -72.0154 50.7744 8.86647
lradius 27.3797
lwrist -1.74936
lhand 8.52619 61.3612
lfingers 7.12502
lthumb 33.7272 808.205
rfemur -9.36581 23.271 27.3003
rtibia 11.1606
rfoot 2.61577 -22.5694
rtoes -9.06907
lfemur 2.84429 -11.0877 -11.892
ltibia 27.0173
lfoot 22.2588 3.63486
ltoes 11.2966
2613
root 2.00065 16.7627 -2.76369 10.402 -40.7985 -1.01671
lowerback -9.47615 -0.76109 -1.86694
upperback -10.9364 -1.16146 0.645412
thorax -6.13159 -0.533327 1.68577
lowerneck -9.16582 -0.458852 -2.954
upperneck 29.3009 -5.35864 15.8865
head 11.5696 -1.14835 5.78234
rclavicle -8.88443e-014 -2.71838e-014
rhumerus -73.1491 -42.2084 -1.77218
rradius 23.8348
rwrist -41.383
rhand -39.4185 -345.509
rfingers 7.12502
rthumb -12.4072 -15.1206
lclavicle -8.88443e-014 -2.71838e-014
lhumerus -72.0366 50.9741 9.84098
lradius 26.9867
lwrist -2.69651
lhand 13.3517 57.6555
lfingers 7.12502
lthumb 38.2979 803.373
rfemur -9.13467 23.6719 27.7425
rtibia 10.5361
rfoot 2.56158 -22.8952
rtoes -7.32341
lfemur 2.42128 -11.1159 -11.1995
ltibia 27.4288
lfoot 22.1784 3.27039
ltoes 8.04268
2614
root 1.97746 16.7624 -2.75638 10.44 -40.7876 -1.02811
lowerback -9.4821 -0.830627 -1.87609
upperback -11.0432 -1.25697 0.70016
thorax -6.24073 -0.578086 1.74627
lowerneck -8.9499 -0.428105 -3.26786
upperneck 29.0717 -5.27901 16.1312
head 11.4349 -1.13678 5.92941
rclavicle -2.77553e-014 5.96354e-016
rhumerus -72.8002 -42.1145 -3.20859
rradius 23.6793
rwrist -41.2481
rhand -39.1518 -346.216
rfingers 7.12502
rthumb -12.15 -15.8436
lclavicle -2.77553e-014 5.96354e-016
lhumerus -72.2042 51.2181 10.6253
lradius 26.8034
lwrist -3.5431
lhand 15.5798 54.3317
lfingers 7.12502
lthumb 40.3972 799.437
rfemur -8.7267 23.7211 27.8245
rtibia 9.86713
rfoot 3.22379 -22.6659
rtoes -8.19261
lfemur 2.21928 -10.988 -11.0909
ltibia 27.788
lfoot 21.3215 2.23369
ltoes -2.33286
2615
root 1.95505 16.7576 -2.74326 10.0888 -40.8552 -0.77857
lowerback -9.61516 -0.868426 -1.92648
upperback -10.8543 -1.29786 0.615587
thorax -5.95835 -0.601261 1.67797
lowerneck -8.84531 -0.456195 -3.49271
upperneck 28.5731 -5.21197 16.2357
head 11.2152 -1.13641 5.98571
rclavicle -1.05604e-015 -1.33186e-014
rhumerus -72.8567 -42.6519 -4.10084
rradius 23.5365
rwrist -40.7051
rhand -39.2436 -346.04
rfingers 7.12502
rthumb -12.2386 -15.6615
lclavicle -1.05604e-015 -1.33186e-014
lhumerus -71.6354 51.6527 12.0547
lradius 26.5976
lwrist -3.82117
lhand 15.2309 51.9343
lfingers 7.12502
lthumb 40.0689 797.14
rfemur -8.30655 23.7793 27.7761
rtibia 9.73628
rfoot 3.30533 -22.7112
rtoes -8.18028
lfemur 2.44928 -10.9401 -11.3177
ltibia 27.9099
lfoot 22.1843 1.91514
ltoes 2.78349
2616
root 1.93562 16.7511 -2.7387 9.87212 -40.9654 -0.647695
lowerback -9.74985 -0.894413 -1.93624
upperback -10.6735 -1.32398 0.564707
thorax -5.68543 -0.618417 1.62306
lowerneck -8.61388 -0.522008 -3.5813
upperneck 27.8652 -5.11418 16.0819
head 10.8774 -1.14433 5.90466
rclavicle 8.08557e-014 5.11871e-014
rhumerus -72.8056 -43.214 -4.92013
rradius 23.1423
rwrist -39.9272
rhand -39.2007 -346.323
rfingers 7.12502
rthumb -12.1972 -15.9471
lclavicle 8.08557e-014 5.11871e-014
lhumerus -70.5976 52.0624 13.9788
lradius 26.2384
lwrist -3.42675
lhand 11.8104 50.4184
lfingers 7.12502
lthumb 36.8414 796.524
rfemur -8.36952 23.9039 27.7944
rtibia 10.2943
rfoot 3.10873 -22.9324
rtoes -8.11927
lfemur 2.7327 -10.8607 -11.4216
ltibia 27.7416
lfoot 22.4408 1.90791
ltoes 2.81065
2617
root 1.91889 16.7488 -2.73859 9.7136 -41.0721 -0.362463
lowerback -9.7292 -0.915827 -2.1674
upperback -10.7155 -1.34476 0.529966
thorax -5.73991 -0.614535 1.71614
lowerneck -8.24155 -0.584571 -3.66875
upperneck 27.1518 -5.02137 15.9471
head 10.5159 -1.15845 5.83195
rclavicle 3.43028e-014 1.26974e-014
rhumerus -72.6176 -43.2943 -5.93488
rradius 22.799
rwrist -39.1654
rhand -38.6861 -346.762
rfingers 7.12502
rthumb -11.7009 -16.4152
lclavicle 3.43028e-014 1.26974e-014
lhumerus -68.6162 51.8368 17.4647
lradius 26.3353
lwrist -1.07826
lhand 5.14186 50.185
lfingers 7.12502
lthumb 30.5053 797.68
rfemur -8.72187 23.9484 27.6114
rtibia 10.9988
rfoot 3.31318 -22.9119
rtoes -9.54164
lfemur 2.86544 -10.8939 -11.6389
ltibia 27.4495
lfoot 23.104 2.16517
ltoes 5.03678
